<?xml version="1.0" encoding="UTF-8"?>
<svg width="72px" height="72px" viewBox="0 0 72 72" version="1.1" xmlns="http://www.w3.org/2000/svg" xmlns:xlink="http://www.w3.org/1999/xlink">
    <!-- Generator: sketchtool 54.1 (76490) - https://sketchapp.com -->
    <title>B67FD872-B336-42B3-9BFB-3A92A6135A94</title>
    <desc>Created with sketchtool.</desc>
    <g id="Page-1" stroke="none" stroke-width="1" fill="none" fill-rule="evenodd">
        <g id="3.id-voor" transform="translate(-152.000000, -696.000000)" fill="#FFFFFF">
            <g id="btn-picture" transform="translate(152.000000, 696.000000)">
                <circle id="Oval" fill-opacity="0.3" cx="36" cy="36" r="27"></circle>
                <path d="M36,72 C55.882251,72 72,55.882251 72,36 C72,16.117749 55.882251,0 36,0 C16.117749,0 0,16.117749 0,36 C0,55.882251 16.117749,72 36,72 Z M36,66 C19.4314575,66 6,52.5685425 6,36 C6,19.4314575 19.4314575,6 36,6 C52.5685425,6 66,19.4314575 66,36 C66,52.5685425 52.5685425,66 36,66 Z" id="Oval" fill-rule="nonzero"></path>
            </g>
        </g>
    </g>
</svg>