<?xml version="1.0" encoding="UTF-8"?>
<svg width="73px" height="130px" viewBox="0 0 73 130" version="1.1" xmlns="http://www.w3.org/2000/svg" xmlns:xlink="http://www.w3.org/1999/xlink">
    <!-- Generator: sketchtool 54.1 (76490) - https://sketchapp.com -->
    <title>1A84F842-C701-4B48-95B2-330B858B1910</title>
    <desc>Created with sketchtool.</desc>
    <g id="Page-1" stroke="none" stroke-width="1" fill="none" fill-rule="evenodd">
        <g id="17.nieuwe-transactie-3" transform="translate(-151.000000, -100.000000)" fill-rule="nonzero">
            <g id="illu-ethereum" transform="translate(151.000000, 100.000000)">
                <g id="ethereum-1">
                    <polygon id="Path" fill="#5D83A0" points="42.6267267 0 72.4876877 70.3951952 56.7783784 79.0384384 26.6987988 8.93603604"></polygon>
                    <polygon id="Path" fill="#496C84" points="72.6633634 77.4378378 45.5039039 121.005405 29.7984985 129.644745 56.9072072 86.0498498"></polygon>
                    <polygon id="Path" fill="#95B9D1" points="15.8732733 59.9015015 45.5780781 91.4567568 29.1972973 99.5846847 0.284984985 68.5603604"></polygon>
                    <polygon id="Path" fill="#6888A5" points="26.9174174 8.63933934 56.7783784 79.0384384 27.9831832 53.3858859"></polygon>
                    <polygon id="Path" fill="#527796" points="56.957958 86.0771772 29.7984985 129.644745 29.0762763 99.2528529"></polygon>
                    <polygon id="Path" fill="#87A7C2" points="0.167867868 68.5408408 29.0762763 99.2528529 29.7984985 129.644745"></polygon>
                    <polygon id="Path" fill="#6284A1" points="27.9831832 53.3858859 28.9084084 92.2258258 0 61.5021021"></polygon>
                    <polygon id="Path" fill="#8AA9C8" points="0 61.5021021 26.9174174 8.63933934 27.9831832 53.3858859"></polygon>
                    <polygon id="Path" fill="#4F7290" points="27.9831832 53.3858859 56.7783784 79.0384384 28.9084084 92.2258258"></polygon>
                </g>
            </g>
        </g>
    </g>
</svg>