<?xml version="1.0" encoding="UTF-8"?>
<svg width="90px" height="128px" viewBox="0 0 90 128" version="1.1" xmlns="http://www.w3.org/2000/svg" xmlns:xlink="http://www.w3.org/1999/xlink">
    <!-- Generator: sketchtool 54.1 (76490) - https://sketchapp.com -->
    <title>4F8FE3F7-FE29-4B31-9360-537C8D360AC2</title>
    <desc>Created with sketchtool.</desc>
    <g id="Page-1" stroke="none" stroke-width="1" fill="none" fill-rule="evenodd">
        <g id="12.permission-notification" transform="translate(-143.000000, -100.000000)" fill-rule="nonzero">
            <g id="illu-profile" transform="translate(143.000000, 100.000000)">
                <g id="user" transform="translate(0.000000, 0.000000)">
                    <path d="M61.9124366,1.4707305 C69.9389066,5.93610811 77.62477,15.7004005 83.0300496,29.7514553 C93.8257998,57.6898345 92.0931486,92.5942028 77.7432418,106.302912 C74.0854225,109.800791 43.6825757,128.495839 39.6841497,127.91534 C30.5914328,126.575726 38.7363747,95.4966982 33.331095,81.4902971 C22.5945807,53.4477258 -1.92909887,34.5294094 11.7692125,20.2550856 C18.6257727,13.1104815 47.3700131,-5.30175886 61.9124366,1.4707305 Z" id="Path" fill="#03627C"></path>
                    <path d="M35.2318016,16.9163767 C43.2423556,21.3821556 50.8840995,31.1622113 56.2539735,45.1996429 C67.0084741,73.2149625 64.6480899,107.467486 51.0021187,121.757979 C44.1570044,128.843681 35.8071453,129.61775 27.7965913,125.151971 C19.7860374,120.686192 12.1442935,110.921022 6.7449146,96.8687046 C-4.00958599,69.0022444 -1.64920178,34.7348344 12.0115219,20.3847983 C18.8418837,13.2395521 27.2064953,12.4357119 35.2318016,16.9163767 Z" id="Path" fill="#00526E"></path>
                    <path d="M27.5554727,68.2274005 C37.4065276,71.9534245 46.4952094,89.2232502 48.2142857,107.483725 C48.2142857,107.631583 48.2142857,107.823799 48.2142857,108.045586 C48.2142857,111.638538 46.7194367,113.693765 44.9256179,113.013618 L15.0286383,101.746831 C13.2348195,101.066684 11.5157431,97.8138057 10.962649,94.0138526 C10.9462152,93.8219807 10.9462152,93.6290779 10.962649,93.437206 C10.3647094,75.5168047 17.7044179,64.4865906 27.5554727,68.2274005 Z" id="Path" fill="#4693A5"></path>
                    <ellipse id="Oval" fill="#4693A5" transform="translate(25.904777, 44.897070) rotate(-10.110000) translate(-25.904777, -44.897070) " cx="25.9047768" cy="44.8970702" rx="8.79341167" ry="20.1541747"></ellipse>
                </g>
            </g>
        </g>
    </g>
</svg>