<?xml version="1.0" encoding="UTF-8"?>
<svg width="30px" height="31px" viewBox="0 0 30 31" version="1.1" xmlns="http://www.w3.org/2000/svg" xmlns:xlink="http://www.w3.org/1999/xlink">
    <!-- Generator: Sketch 54.1 (76490) - https://sketchapp.com -->
    <title>icon-company</title>
    <desc>Created with Sketch.</desc>
    <g id="icon-company" stroke="none" stroke-width="1" fill="none" fill-rule="evenodd">
        <path d="M10,9 C10.5512,9 11,8.69730216 11,8.32553957 L11,6.67446043 C11,6.30215827 10.5512,6 10,6 C9.4488,6 9,6.30215827 9,6.67446043 L9,8.32553957 C9,8.69730216 9.4488,9 10,9" id="Fill-1" fill="#AA418C"></path>
        <path d="M15,9 C15.5512,9 16,8.69730216 16,8.32553957 L16,6.67446043 C16,6.30215827 15.5512,6 15,6 C14.4488,6 14,6.30215827 14,6.67446043 L14,8.32553957 C14,8.69730216 14.4488,9 15,9" id="Fill-3" fill="#AA418C"></path>
        <path d="M20,9 C20.5512,9 21,8.69730216 21,8.32553957 L21,6.67446043 C21,6.30215827 20.5512,6 20,6 C19.4488,6 19,6.30215827 19,6.67446043 L19,8.32553957 C19,8.69730216 19.4488,9 20,9" id="Fill-5" fill="#AA418C"></path>
        <path d="M10,18 C10.5512,18 11,17.6973022 11,17.3255396 L11,15.6744604 C11,15.3021583 10.5512,15 10,15 C9.4488,15 9,15.3021583 9,15.6744604 L9,17.3255396 C9,17.6973022 9.4488,18 10,18" id="Fill-7" fill="#AA418C"></path>
        <path d="M15,18 C15.5512,18 16,17.6973022 16,17.3255396 L16,15.6744604 C16,15.3021583 15.5512,15 15,15 C14.4488,15 14,15.3021583 14,15.6744604 L14,17.3255396 C14,17.6973022 14.4488,18 15,18" id="Fill-9" fill="#AA418C"></path>
        <path d="M20,18 C20.5512,18 21,17.6973022 21,17.3255396 L21,15.6744604 C21,15.3021583 20.5512,15 20,15 C19.4488,15 19,15.3021583 19,15.6744604 L19,17.3255396 C19,17.6973022 19.4488,18 20,18" id="Fill-11" fill="#AA418C"></path>
        <path d="M10,26 C10.5512,26 11,25.6973022 11,25.3255396 L11,23.6744604 C11,23.3021583 10.5512,23 10,23 C9.4488,23 9,23.3021583 9,23.6744604 L9,25.3255396 C9,25.6973022 9.4488,26 10,26" id="Fill-13" fill="#AA418C"></path>
        <path d="M15,26 C15.5512,26 16,25.6973022 16,25.3255396 L16,23.6744604 C16,23.3021583 15.5512,23 15,23 C14.4488,23 14,23.3021583 14,23.6744604 L14,25.3255396 C14,25.6973022 14.4488,26 15,26" id="Fill-15" fill="#AA418C"></path>
        <path d="M20,26 C20.5512,26 21,25.6973022 21,25.3255396 L21,23.6744604 C21,23.3021583 20.5512,23 20,23 C19.4488,23 19,23.3021583 19,23.6744604 L19,25.3255396 C19,25.6973022 19.4488,26 20,26" id="Fill-17" fill="#AA418C"></path>
        <path d="M6.07153124,29.4387591 L23.9284688,29.4387591 L23.9284688,1.56124093 L6.07153124,1.56124093 L6.07153124,29.4387591 Z M25.4855788,29.4387591 L25.4855788,0.780620467 C25.4855788,0.349717969 25.1361633,0 24.7070238,0 L5.29297624,0 C4.86383672,0 4.51442123,0.349717969 4.51442123,0.780620467 L4.51442123,29.4387591 L1.778555,29.4387591 C1.34941548,29.4387591 1,29.7891015 1,30.2193795 C1,30.6496575 1.34941548,31 1.778555,31 L28.221445,31 C28.6512074,31 29,30.6496575 29,30.2193795 C29,29.7891015 28.6512074,29.4387591 28.221445,29.4387591 L25.4855788,29.4387591 Z" id="Fill-19" fill="#AA418C"></path>
    </g>
</svg>