<?xml version="1.0" encoding="UTF-8"?>
<svg width="22px" height="29px" viewBox="0 0 22 29" version="1.1" xmlns="http://www.w3.org/2000/svg" xmlns:xlink="http://www.w3.org/1999/xlink">
    <!-- Generator: sketchtool 54.1 (76490) - https://sketchapp.com -->
    <title>0C2749FA-1C43-465C-8EB8-79A9451EB40D</title>
    <desc>Created with sketchtool.</desc>
    <g id="Page-1" stroke="none" stroke-width="1" fill="none" fill-rule="evenodd">
        <g id="11.profile" transform="translate(-102.000000, -391.000000)" fill="#AA418C">
            <g id="Group" transform="translate(98.000000, 391.000000)">
                <g id="icon-location">
                    <g id="Group-6" transform="translate(4.000000, 0.000000)">
                        <path d="M10.7876,1.62632 C16.0089333,1.62632 20.2269333,5.70372 20.2269333,10.7510089 C20.2269333,14.3895422 17.7896,18.7292311 15.2969333,22.1022533 C13.0422667,25.1543422 11.1976,26.9278533 10.7876,27.3325644 C10.3769333,26.9272089 8.5356,25.1530533 6.28093333,22.1022533 C3.7876,18.7292311 1.34893333,14.3895422 1.34893333,10.7510089 C1.34893333,5.70372 5.56626667,1.62632 10.7876,1.62632 M10.7876,0.322608889 C4.83826667,0.322608889 -0.0004,4.99934222 -0.0004,10.7510089 C-0.0004,14.9328089 2.62026667,19.3910756 5.1836,22.86012 C7.74693333,26.3298089 10.3122667,28.8096311 10.3122667,28.8096311 C10.5756,29.0635422 11.0022667,29.0635422 11.2656,28.8096311 C11.2656,28.8096311 13.8302667,26.3298089 16.3942667,22.86012 C18.9576,19.3910756 21.5756,14.9328089 21.5756,10.7510089 C21.5756,4.99934222 16.7376,0.322608889 10.7876,0.322608889" id="Fill-1"></path>
                        <path d="M14.7096774,11 C14.7096774,13.0451613 13.0458065,14.7090323 11,14.7090323 C8.95483871,14.7090323 7.29096774,13.0451613 7.29096774,11 C7.29096774,8.95483871 8.95483871,7.29032258 11,7.29032258 C13.0458065,7.29032258 14.7096774,8.95483871 14.7096774,11 M11,6 C8.24322581,6 6,8.24322581 6,11 C6,13.7567742 8.24322581,16 11,16 C13.7574194,16 16,13.7567742 16,11 C16,8.24322581 13.7574194,6 11,6" id="Fill-4"></path>
                    </g>
                </g>
            </g>
        </g>
    </g>
</svg>