<svg xmlns="http://www.w3.org/2000/svg" xmlns:xlink="http://www.w3.org/1999/xlink" viewBox="0 0 650.39 750.64"><defs><style>.cls-1{fill:none;}.cls-2,.cls-4,.cls-5{opacity:0.5;}.cls-2{fill:url(#linear-gradient);}.cls-3{opacity:0.3;fill:url(#linear-gradient-2);}.cls-4{fill:url(#linear-gradient-3);}.cls-5{fill:url(#linear-gradient-4);}.cls-6{fill:#ffca7d;}.cls-7{fill:#fb991e;}.cls-8{fill:#fa5;}.cls-9{fill:#c9ecf2;}.cls-10{clip-path:url(#clip-path);}.cls-11{fill:#a8c6cb;}.cls-12{clip-path:url(#clip-path-2);}.cls-13{fill:#b3d3d8;}.cls-14{fill:#b0ced4;}.cls-15{fill:#accacf;}.cls-16{fill:#bedfe5;}.cls-17{clip-path:url(#clip-path-3);}.cls-18{fill:#b7d7dc;}.cls-19{fill:#abd4db;}.cls-20{fill:#4693a5;}.cls-21{fill:#00526e;}.cls-22{fill:#03627c;}.cls-23{fill:#d8d8d8;}.cls-24{fill:#ccc;}.cls-25{fill:#f21c54;}.cls-26{fill:#dbdbdb;}.cls-27{fill:#cc69ba;}.cls-28{fill:#9b3287;}.cls-29{fill:#aa418c;}.cls-30{fill:#fff;}.cls-31{fill:#5dc9e2;}.cls-32{fill:#5d83a0;}.cls-33{fill:#496c84;}.cls-34{fill:#95b9d1;}.cls-35{fill:#6888a5;}.cls-36{fill:#527796;}.cls-37{fill:#87a7c2;}.cls-38{fill:#6284a1;}.cls-39{fill:#8aa9c8;}.cls-40{fill:#4f7290;}.cls-41{fill:#5f8caa;}.cls-42{fill:#f490e6;}.cls-43{fill:#7c8e93;}.cls-44{fill:#043a49;}.cls-45{fill:#f8feff;}.cls-46{fill:#1b545e;}.cls-47{fill:#e6fdff;}</style><linearGradient id="linear-gradient" x1="159.56" y1="630.5" x2="214.06" y2="553.23" gradientTransform="matrix(1, 0.01, -0.01, 1, 3.56, 12.74)" gradientUnits="userSpaceOnUse"><stop offset="0" stop-color="#4693a5" stop-opacity="0.1"/><stop offset="0.13" stop-color="#4794a6" stop-opacity="0.26"/><stop offset="0.41" stop-color="#4995a7" stop-opacity="0.58"/><stop offset="0.66" stop-color="#4b96a7" stop-opacity="0.81"/><stop offset="0.86" stop-color="#4c97a8" stop-opacity="0.95"/><stop offset="0.98" stop-color="#4c97a8"/></linearGradient><linearGradient id="linear-gradient-2" x1="276.9" y1="558.85" x2="331.44" y2="481.54" xlink:href="#linear-gradient"/><linearGradient id="linear-gradient-3" x1="380.11" y1="630.4" x2="434.59" y2="553.16" xlink:href="#linear-gradient"/><linearGradient id="linear-gradient-4" x1="160.05" y1="484.2" x2="214.59" y2="406.89" xlink:href="#linear-gradient"/><clipPath id="clip-path"><path class="cls-1" d="M46.43,255.12l7,1.77c2.21.55,3.8,3.09,4.88,7.71,1.44,6.13,1.58,14.5,1.67,20l-7-1.76c-.09-5.54-.23-13.91-1.66-20C50.22,258.21,48.64,255.68,46.43,255.12Z"/></clipPath><clipPath id="clip-path-2"><path class="cls-1" d="M48,249.26,55,251a7.85,7.85,0,0,0-5,.63l-7-1.77A7.8,7.8,0,0,1,48,249.26Z"/></clipPath><clipPath id="clip-path-3"><path class="cls-1" d="M37.44,294.2l-7-1.77c-.2-12-.6-37,12.54-42.55l7,1.77C36.84,257.23,37.25,282.2,37.44,294.2Z"/></clipPath></defs><title>Asset 11</title><g id="Layer_2" data-name="Layer 2"><g id="Layer_1-2" data-name="Layer 1"><polygon class="cls-2" points="290.34 604.61 187.94 663.74 85.36 603.67 190.14 546.4 290.34 604.61"/><polygon class="cls-3" points="408.43 533.84 305.29 592.54 202.87 532.56 306.02 473.85 408.43 533.84"/><polygon class="cls-4" points="510.61 605.74 408.39 664.98 306.16 605.11 408.85 546.13 510.61 605.74"/><polygon class="cls-5" points="292.05 458.46 188.9 517.16 86.48 457.18 189.64 398.48 292.05 458.46"/><polygon class="cls-6" points="75.72 278.99 34.23 302.94 16.96 293.53 58.45 269.58 75.72 278.99"/><polygon class="cls-7" points="34.21 302.94 16.96 293.54 16.96 341.37 34.21 350.77 34.21 302.94"/><polygon class="cls-8" points="34.21 350.77 75.66 326.85 75.66 279.02 34.21 302.96 34.21 350.77"/><polygon class="cls-9" points="34.27 324.47 26.54 320.25 26.54 317.52 34.24 321.72 41.9 317.3 41.9 320.06 34.27 324.47"/><polygon class="cls-9" points="34.27 330.85 26.54 326.63 26.54 323.9 34.24 328.1 41.9 323.68 41.9 326.44 34.27 330.85"/><g class="cls-10"><path class="cls-11" d="M60,284.63l-7-1.76c-.09-5.54-.23-13.91-1.66-20-1.09-4.62-2.67-7.15-4.88-7.71l7,1.77c2.21.55,3.8,3.09,4.88,7.71,1.44,6.13,1.58,14.5,1.67,20"/></g><g class="cls-12"><path class="cls-13" d="M50,251.65l-7-1.77a10.58,10.58,0,0,1,1.86-.61l7,1.77a10.32,10.32,0,0,0-1.86.61"/><path class="cls-14" d="M51.85,251l-7-1.77a7,7,0,0,1,2.6-.12l7,1.77a6.83,6.83,0,0,0-2.6.12"/><path class="cls-15" d="M54.45,250.92l-7-1.77a4.86,4.86,0,0,1,.55.11L55,251a5.12,5.12,0,0,0-.54-.1"/></g><path class="cls-16" d="M50,251.65C63.14,246.06,63.55,271,63.74,283L60,284.63c-.09-5.53-.23-13.9-1.67-20-1.57-6.69-4.18-9-8.23-7.29-8.24,3.5-9.13,19-8.87,35.29l-3.77,1.6C37.25,282.2,36.84,257.23,50,251.65Z"/><g class="cls-17"><path class="cls-11" d="M37.44,294.2l-7-1.77c0-2.17-.08-4.77-.05-7.61l7,1.77c0,2.83,0,5.43,0,7.61"/><path class="cls-15" d="M37.4,286.59l-7-1.77a102.93,102.93,0,0,1,1.17-15.23l7,1.76a101.72,101.72,0,0,0-1.17,15.24"/><path class="cls-14" d="M38.57,271.35l-7-1.76a51.69,51.69,0,0,1,1.62-6.94l7,1.77a51.89,51.89,0,0,0-1.61,6.93"/><path class="cls-13" d="M40.18,264.42l-7-1.77a31.06,31.06,0,0,1,2.23-5.39l7,1.77a30.76,30.76,0,0,0-2.24,5.39"/><path class="cls-18" d="M42.42,259l-7-1.77a17.14,17.14,0,0,1,5.16-6l7,1.76a17.17,17.17,0,0,0-5.16,6"/><path class="cls-13" d="M47.58,253l-7-1.76A13.15,13.15,0,0,1,43,249.88l7,1.77A12.79,12.79,0,0,0,47.58,253"/></g><path class="cls-7" d="M56.34,311.64c.94-.45,1.54.26,1.34,1.6a4.67,4.67,0,0,1-2,3.26c-.94.46-1.54-.26-1.35-1.6A4.71,4.71,0,0,1,56.34,311.64Z"/><polyline class="cls-19" points="55.73 314.51 58.34 316 58.83 315.13 56.23 313.64"/><path class="cls-19" d="M116.12,349l5.25,3,.5-.87-5.25-3Zm-10.51-6,5.26,3,.49-.87-5.25-3Zm-10.5-6,5.25,3,.5-.87-5.26-3ZM84.6,331l5.26,3,.49-.87-5.25-3Zm-10.5-6,5.25,3,.5-.87-5.26-3Zm-10.51-6,5.25,3,.5-.86-5.25-3Z"/><polyline class="cls-19" points="126.63 354.98 129.23 356.47 129.73 355.6 127.12 354.11"/><polyline class="cls-19" points="146.31 613.79 143.72 615.31 144.22 616.17 146.81 614.66"/><path class="cls-19" d="M31,681.24l-5.37,3.14.5.87,5.37-3.14ZM41.69,675l-5.37,3.14.5.87,5.37-3.14Zm10.74-6.28-5.37,3.14.5.87,5.37-3.14Zm10.74-6.28-5.37,3.14.5.87,5.37-3.14Zm10.74-6.28-5.37,3.14.5.87L74.41,657Zm10.74-6.28L79.28,653l.5.87,5.37-3.14Zm10.74-6.28L90,646.7l.5.87,5.37-3.14Zm10.74-6.27-5.37,3.14.5.86,5.37-3.14ZM116.87,631l-5.37,3.14.5.86,5.37-3.14Zm10.74-6.28-5.37,3.14.5.86,5.37-3.14Zm10.74-6.28L133,621.59l.5.86,5.37-3.14Z"/><polyline class="cls-19" points="20.21 687.52 17.62 689.04 18.12 689.9 20.71 688.39"/><polygon class="cls-20" points="312.73 326.79 209.94 386.13 107.16 326.78 209.94 267.44 312.73 326.79"/><polygon class="cls-21" points="209.88 386.13 107.16 326.82 107.16 445.31 209.88 504.62 209.88 386.13"/><polygon class="cls-22" points="209.88 504.62 312.59 445.36 312.59 326.86 209.88 386.16 209.88 504.62"/><polygon class="cls-23" points="393.74 122.94 389.94 125.31 357.79 105.73 361.59 103.36 393.74 122.94"/><polygon class="cls-24" points="390.01 125.23 357.93 105.69 357.93 153.17 390.01 172.72 390.01 125.23"/><line class="cls-25" x1="393.74" y1="122.86" x2="393.74" y2="122.86"/><polygon class="cls-26" points="390.01 172.75 393.74 170.42 393.74 122.94 390.01 125.27 390.01 172.75"/><polygon class="cls-20" points="423.77 265.96 320.99 325.3 218.21 265.95 320.99 206.61 423.77 265.96"/><polygon class="cls-21" points="320.92 325.3 218.21 265.99 218.21 524.2 320.92 583.5 320.92 325.3"/><line class="cls-25" x1="423.64" y1="265.95" x2="423.64" y2="265.95"/><polygon class="cls-22" points="320.92 583.54 423.64 524.24 423.64 266.03 320.92 325.33 320.92 583.54"/><polygon class="cls-20" points="534.89 473.4 432.11 532.74 329.32 473.4 432.11 414.05 534.89 473.4"/><polygon class="cls-21" points="432.04 532.74 329.32 473.44 329.32 591.93 432.04 651.23 432.04 532.74"/><polygon class="cls-22" points="432.04 651.23 534.76 591.97 534.76 473.48 432.04 532.78 432.04 651.23"/><polygon class="cls-20" points="312.6 529.2 209.81 588.54 107.03 529.19 209.81 469.85 312.6 529.2"/><polygon class="cls-21" points="209.75 588.54 107.03 529.23 107.03 591.84 209.75 651.14 209.75 588.54"/><line class="cls-25" x1="312.46" y1="529.2" x2="312.46" y2="529.19"/><polygon class="cls-22" points="209.75 651.14 312.46 591.88 312.46 529.27 209.75 588.57 209.75 651.14"/><polygon class="cls-20" points="423.77 167.41 320.99 226.75 218.34 167.37 320.99 108.06 423.77 167.41"/><polygon class="cls-21" points="321.06 226.67 218.34 167.37 218.34 257.95 321.06 317.26 321.06 226.67"/><polygon class="cls-22" points="321.06 317.3 423.77 257.99 423.77 167.41 321.06 226.71 321.06 317.3"/><polygon class="cls-27" points="435.94 59.35 432.14 61.72 329.35 2.37 333.15 0 435.94 59.35"/><polygon class="cls-28" points="432.21 61.63 329.49 2.33 329.49 92.92 432.21 152.22 432.21 61.63"/><polygon class="cls-29" points="432.21 152.26 435.94 149.93 435.94 59.34 432.21 61.67 432.21 152.26"/><polygon class="cls-20" points="534.92 290.82 432.14 350.16 329.35 290.82 432.14 231.48 534.92 290.82"/><polygon class="cls-21" points="432.07 350.16 329.35 290.86 329.35 465.02 432.07 524.33 432.07 350.16"/><polygon class="cls-22" points="432.07 524.37 534.79 465.06 534.79 290.9 432.07 350.2 432.07 524.37"/><path class="cls-30" d="M391.23,73.77l-7.64,17.88-7.44-4.47-7.66-27.07,7.1,4.27,3.2,13.31a44.26,44.26,0,0,1,1.09,6,22.84,22.84,0,0,1,.45-2.43c.22-.94.42-1.66.58-2.18l3.24-9.51Z"/><path class="cls-30" d="M362.08,68.94l6.83,13.89-7.16-4.3-5-11.16-1.6-1v8.19l-6.33-3.8,0-22.49,7.66,4.61q9.54,5.73,9.55,12.37Q366.05,69.19,362.08,68.94Zm-5.73-6.39c2.21,1.32,3.32,1.05,3.31-.82,0-1.56-1.08-3-3.25-4.28l-1.24-.75v5.14l1.18.71"/><path class="cls-30" d="M413.87,87.37,406.51,93l7.26,16.77-7.14-4.29L402,94.12l-1.87,0v7.51l-6.35-3.81,0-22.49,6.36,3.82v9.77a10.73,10.73,0,0,1,1.93-1.71l4.91-4Z"/><path class="cls-9" d="M482.34,156.33l.19-1.46c0,.5,0,1,0,1.51Z"/><path class="cls-9" d="M533.75,179.31c5.43,3.16,8.1,10.71,7.7,17.11-.1,1.61,0,2.69-.65,3.76s-2.78,1.95-4.08,2.73a22.69,22.69,0,0,1-6.58,3.1c2.48-.89,4.4-3.21,5.07-6.64,1.23-6.29-2.17-14-7.6-17.14l-.26-.14c.68-7.37-3.37-15.76-9.58-19.38a11.9,11.9,0,0,0-4.87-1.61,9.24,9.24,0,0,0-1.39,0c-1.23-6.9-5.39-13.59-11.08-16.89a13.88,13.88,0,0,0-5.77-1.93,10.1,10.1,0,0,0-8.33,3.08,16.45,16.45,0,0,1,14-5.86,17.77,17.77,0,0,1,6.27,1.78c5.68,3.3,9.85,10,11.07,16.89a9.24,9.24,0,0,1,1.39,0,11.73,11.73,0,0,1,4.87,1.62c6.22,3.61,10.26,12,9.58,19.37Z"/><path class="cls-31" d="M494.66,142.26a13.88,13.88,0,0,1,5.77,1.93c5.69,3.3,9.85,10,11.08,16.89a9.24,9.24,0,0,1,1.39,0,11.9,11.9,0,0,1,4.87,1.61c6.21,3.62,10.26,12,9.58,19.38l.26.14c5.43,3.17,8.83,10.85,7.6,17.14-.67,3.43-2.59,5.75-5.07,6.64a7.3,7.3,0,0,1-3,.37,9.54,9.54,0,0,1-4-1.33L521.41,204,481.93,181l-1.62-.85c-5.43-3.15-8.84-10.83-7.61-17.12.93-4.75,4.22-7.35,8.11-7a9.13,9.13,0,0,1,1.53.28,5.84,5.84,0,0,0,.19-1.46,19.13,19.13,0,0,1,.32-2.41l0-.23a13.79,13.79,0,0,1,3.44-6.89A10.1,10.1,0,0,1,494.66,142.26Z"/><polygon class="cls-32" points="216.7 401.8 249.68 479.55 232.33 489.09 199.11 411.67 216.7 401.8"/><polygon class="cls-33" points="249.88 487.33 219.88 535.45 202.53 544.99 232.47 496.84 249.88 487.33"/><polygon class="cls-34" points="187.15 467.96 219.08 501.88 201.87 511.79 169.93 477.52 187.15 467.96"/><polygon class="cls-35" points="199.35 411.34 232.33 489.09 200.53 460.76 199.35 411.34"/><polygon class="cls-36" points="232.53 496.87 202.53 544.99 201.73 511.42 232.53 496.87"/><polygon class="cls-37" points="169.8 477.5 201.73 511.42 202.53 544.99 169.8 477.5"/><polygon class="cls-38" points="200.53 460.76 201.55 503.66 169.62 469.73 200.53 460.76"/><polygon class="cls-39" points="169.62 469.73 199.35 411.34 200.53 460.76 169.62 469.73"/><polygon class="cls-40" points="200.53 460.76 232.33 489.09 201.55 503.66 200.53 460.76"/><polygon class="cls-41" points="249.88 487.33 232.47 496.84 201.86 511.42 219.08 501.88 249.88 487.33"/><path class="cls-21" d="M491.73,554.88c2.88-1.41,4.74.8,4.14,4.91s-3.43,8.59-6.31,10-4.73-.79-4.13-4.91S488.86,556.28,491.73,554.88Z"/><polyline class="cls-19" points="486.98 560.8 489.58 562.3 490.08 561.43 487.48 559.94"/><path class="cls-19" d="M554.36,599.51l5,2.86.5-.86-5-2.87Zm-10-5.72,5,2.86.5-.87-5-2.86Zm-10-5.73,5,2.86.5-.86-5-2.87Zm-10-5.72,5,2.86.5-.87-5-2.86Zm-10-5.73,5,2.86.5-.86-5-2.87Zm-10-5.72,5,2.86.5-.87L505,570Zm-10-5.73,5,2.86.5-.86-5-2.87Z"/><polyline class="cls-19" points="564.32 605.24 566.92 606.73 567.42 605.86 564.82 604.37"/><path class="cls-8" d="M610.68,602.67a1.92,1.92,0,0,1,.58,1.25c1.16,25.93-13.83,47.36-28.6,49.55a.82.82,0,0,1-.37-.06,1.25,1.25,0,0,1-.38-.25c-15.52-14.42-18.89-41.36-20-67.29,0-.45.17-.77.48-.82L585,580.66a.68.68,0,0,1,.39.06,1.27,1.27,0,0,1,.41.27Z"/><polygon class="cls-42" points="598.43 608.74 601.93 614.09 589.12 625.81 578.32 611.28 581.05 608.01 588.4 617.89 598.43 608.74"/><path class="cls-6" d="M555.43,589.42c-.14-1.26,3.84-3.5,7.72-5a3.33,3.33,0,0,1,.66-.19l22.66-4.38a.81.81,0,0,1,.4.05,1.3,1.3,0,0,1,.41.28l23.4,22.54a1.51,1.51,0,0,1,.58,1.25c-.41,1.75-7.6,4.6-7.6,4.6"/><polygon class="cls-30" points="590.53 613.4 594.03 618.75 581.21 630.47 570.42 615.94 573.15 612.67 580.5 622.55 590.53 613.4"/><path class="cls-7" d="M603.27,608a1.92,1.92,0,0,1,.58,1.24c1.16,25.93-6.65,42.06-21.41,44.25a.86.86,0,0,1-.38-.06,1.38,1.38,0,0,1-.38-.25c-15.51-14.42-25.09-37.57-26.25-63.5,0-.44.17-.76.48-.82l22.66-4.38a.82.82,0,0,1,.4,0,1.45,1.45,0,0,1,.41.27Zm-22.06,22.49L594,618.75l-3.5-5.35-10,9.15-7.34-9.88-2.73,3.27,10.79,14.53"/><path class="cls-7" d="M605.92,625.78c.94-.46,1.54.26,1.35,1.6a4.73,4.73,0,0,1-2,3.26c-.94.45-1.55-.26-1.35-1.6A4.67,4.67,0,0,1,605.92,625.78Z"/><path class="cls-43" d="M33.45,603.75c1.72.91,3.1,4.89,3.1,8.93l-.09,80.9c0,4-1.47,4.6-3.15,5.81-1.84,1.31-5.82,3.67-5.82,3.67-1.72-.91-14.86-18.11-14.86-22.15L7.2,598.28c4.71-3.12,7.49-4.62,8.63-3.9Z"/><path class="cls-44" d="M26.47,607.42c1.72.91,3.1,4.9,3.09,8.93l-.08,80.91c0,4-1.39,6.53-3.11,5.62L8.76,693.51c-1.73-.91-3.11-4.89-3.11-8.92l.09-80.91c0-4,1.39-6.54,3.11-5.63Zm1,79,.07-66.36L7.81,609.64,7.74,676l19.68,10.47m-9.85,6.89c.85.46,1.55-.8,1.55-2.82s-.69-4-1.55-4.46-1.56.8-1.56,2.81.7,4,1.56,4.47"/><polyline class="cls-45" points="27.42 686.38 27.49 620.02 7.81 609.56 7.73 675.91 27.42 686.38"/><path class="cls-46" d="M17.61,693.21c.86.46,1.55-.8,1.56-2.81s-.69-4-1.55-4.46-1.56.8-1.56,2.81.69,4,1.55,4.46"/><path class="cls-20" d="M9.84,635.52l4.24,2.34v5.62l-4.24-2.34Zm3,5.68v-2.41l-1.81-1v2.41l1.81,1"/><path class="cls-20" d="M9.82,649.16l4.24,2.34v5.62l-4.24-2.35Zm3,5.68v-2.41l-1.81-1v2.41l1.82,1"/><polygon class="cls-20" points="24.36 658.8 24.35 662.81 23.14 662.14 23.15 659.74 21.33 658.73 21.32 661.14 20.11 660.47 20.12 656.46 24.36 658.8"/><polygon class="cls-20" points="16.48 656.05 16.47 658.46 15.26 657.79 15.26 655.38 16.48 656.05"/><polygon class="cls-20" points="14.06 648.29 14.06 649.9 12.24 648.89 12.24 647.29 14.06 648.29"/><polygon class="cls-20" points="16.5 642.41 16.49 648.03 11.04 645.02 11.03 648.23 9.82 647.56 9.83 642.74 15.28 645.75 15.29 641.74 16.5 642.41"/><polygon class="cls-20" points="21.34 649.11 21.34 652.32 20.13 651.65 20.13 650.04 18.92 649.37 18.91 652.58 16.48 651.24 16.48 652.84 18.91 654.18 18.9 659.8 17.68 659.13 17.69 655.12 15.27 653.77 15.28 648.97 17.7 650.31 17.71 647.1 21.34 649.11"/><path class="cls-20" d="M20.14,641.21l4.24,2.34v5.62l-4.24-2.34Zm3,5.69v-2.41l-1.82-1v2.4l1.82,1"/><polygon class="cls-20" points="24.37 650.78 24.36 657.19 20.12 654.85 20.12 653.25 23.16 654.93 23.16 650.11 24.37 650.78"/><polygon class="cls-20" points="18.93 640.54 18.92 646.16 17.71 645.49 17.71 641.48 15.29 640.13 15.29 638.53 18.93 640.54"/><path class="cls-47" d="M32.38,548.89c4.57,2.53,8.93,8.05,12,16l-3.2,3.3-3.32,1.9"/><path class="cls-47" d="M38.77,542.26c4.57,2.53,8.94,8,12,16l-3.2,3.31-3.32,1.89"/><path class="cls-9" d="M31.37,563.47a6.54,6.54,0,0,1,2.6,3.46c1.33,3.43,1.12,7.71-.65,9.39-.45.43-4.2,2.73-4.69,2.66-1.13-.17-.12-4-.79-5.7-1.33-3.43-4.36-5.75-2.66-7.5C26,564.9,29.57,562.64,31.37,563.47Z"/><path class="cls-9" d="M18.08,550.85a12.18,12.18,0,0,1,14.3-2c4.57,2.53,8.93,8.05,12,16l-3.32,1.88c-2.38-6.12-5.63-9-9.16-10.92s-7.57-2.48-10.59.65Z"/><path class="cls-9" d="M33.34,535c6.64,3.68,13,11.7,17.44,23.19l-3.32,1.89c-3.77-9.71-9-15-14.6-18.15S21,538.3,16.18,543.25l-2.08-5.36C19.76,532,26.7,531.35,33.34,535Z"/><path class="cls-31" d="M30,536.92c6.64,3.68,13,11.7,17.44,23.19l-3.2,3.31c-3.77-9.7-9.12-16.47-14.72-19.57s-11.46-2.55-16.24,2.41l-2.52-6.48C16.44,533.9,23.38,533.24,30,536.92Z"/><path class="cls-31" d="M28.05,565.35a6.58,6.58,0,0,1,2.6,3.46c1.33,3.44,1,7.64-.65,9.4a2.24,2.24,0,0,1-2.87.43,6.63,6.63,0,0,1-2.61-3.47c-1.33-3.43-1-7.63.66-9.39A2.22,2.22,0,0,1,28.05,565.35Z"/><path class="cls-31" d="M15.82,552.75c3.9-4,8.67-4.5,13.24-2s8.93,8.05,12,16l-3.2,3.32c-2.37-6.12-5.75-10.4-9.28-12.35a8,8,0,0,0-10.25,1.52Z"/><path class="cls-19" d="M16.8,689.27a25.51,25.51,0,0,0-2.57,1.65l.59.81a26.52,26.52,0,0,1,2.47-1.58l-.49-.88Z"/><path class="cls-19" d="M618.61,635.61c-1.73-1.17-3.42-2.26-5-3.26l-.53.85c1.59,1,3.27,2.07,5,3.24l.56-.83Zm9.61,7.14c-1.56-1.28-3.14-2.51-4.72-3.68l-.6.8c1.57,1.16,3.14,2.38,4.69,3.65l.63-.77ZM637,651c-1.34-1.47-2.77-2.88-4.24-4.25l-.68.73q2.19,2,4.19,4.19L637,651Zm7.17,9.64a45.37,45.37,0,0,0-3.31-5l-.8.6a43.86,43.86,0,0,1,3.24,4.92l.87-.49Zm4.14,11.3a50,50,0,0,0-1.64-5.8l-.94.34a48.79,48.79,0,0,1,1.6,5.68l1-.22Zm1.76,11.86c-.17-2.06-.4-4.06-.68-6l-1,.15c.27,1.88.5,3.85.66,5.89Zm.28,12c0-1.21.06-2.42.06-3.62,0-.79,0-1.59,0-2.38l-1,0c0,.78,0,1.56,0,2.35,0,1.19,0,2.38-.06,3.58l1,0Zm-1.19,11.93c.34-2,.59-4,.79-5.95l-1-.1c-.19,2-.45,3.94-.77,5.88l1,.17Zm-2.94,11.63q1-2.81,1.72-5.75l-1-.25q-.72,2.91-1.69,5.67Zm-5.3,10.79a41.91,41.91,0,0,0,3-5.23l-.89-.44a43.34,43.34,0,0,1-2.93,5.12l.83.55Zm-8.28,8.73c.87-.66,1.73-1.36,2.56-2.1s1.34-1.24,2-1.9l-.72-.69c-.61.64-1.24,1.25-1.9,1.84-.82.73-1.65,1.41-2.5,2l.6.8Zm-10.5,5.85a46.46,46.46,0,0,0,5.45-2.57l-.49-.87a45.32,45.32,0,0,1-5.33,2.52l.37.92Zm-11.58,3.18c2-.33,3.91-.75,5.87-1.28l-.26-1q-2.89.78-5.78,1.26l.17,1ZM598.6,749c1.94-.06,3.94-.17,6-.36l-.1-1c-2,.18-4,.29-5.92.35Zm-12-.09c1.84,0,3.85.11,6,.13l0-1c-2.12,0-4.12-.08-6-.13Zm-11.91-.06,6,0v-1l-6,0Zm-11.93,0,6,0v-1l-6,0Zm-11.92,0h6v-1h-6v1Zm-11.93,0,6,0v-1l-6,0ZM527,749l6,0v-1l-6,0Zm-11.93,0,6,0v-1l-6,0Zm-11.93,0,6,0v-1l-6,0Zm-11.92,0,6,0v-1l-6,0Zm-11.93,0,6,0v-1l-6,0Zm-11.93,0,6,0v-1l-6,0Zm-11.93,0,6,0v-1l-6,0Zm-11.92.06,6,0v-1l-6,0Zm-11.93.06,6,0v-1l-6,0Zm-11.93.07,6,0v-1l-6,0Zm-11.93.07,6,0v-1l-6,0Zm-11.93.07,6,0v-1l-6,0Zm-11.92.06,6,0v-1l-6,0Zm-11.93.07,6,0v-1l-6,0Zm-11.93.07,6,0v-1l-6,0Zm-11.93.07,6,0v-1l-6,0Zm-11.93.06,6,0v-1l-6,0Zm-11.92.07,6,0v-1l-6,0Zm-11.93.07,6,0v-1l-6,0Zm-11.93.06,6,0v-1l-6,0Zm-11.93.07,6,0v-1l-6,0Zm-11.92.07,6,0v-1l-6,0Zm-11.93.07,6,0v-1l-6,0Zm-11.93.06,6,0v-1l-6,0Zm-11.93.07,6,0v-1l-6,0Zm-11.93.07,6,0v-1l-6,0Zm-11.92.07,6,0v-1l-6,0Zm-11.93.06,6,0v-1l-6,0Zm-11.93,0h6v-1h-6Zm-11.93,0h6v-1h-6Zm-11.93,0h6v-1h-6Zm-11.93,0h6v-1h-6Zm-11.92,0h6v-1h-6Zm-11.93,0h6v-1h-6Zm-11.93,0h6v-1h-6Zm-11.93,0h6v-1h-6Zm-11.93,0h6v-1h-6Zm-11.92,0h6v-1h-6Zm-11.93,0h6v-1h-6Zm-11.93,0h6v-1h-6Zm-11.93,0h6v-1h-6Zm-11.93,0h6v-1H38Zm-11.92,0h6v-1h-6Zm-11.72-2.73A26.49,26.49,0,0,0,20,750l.23-1a25.79,25.79,0,0,1-5.49-2l-.44.89ZM5.24,740a24.48,24.48,0,0,0,4,4.54l.66-.76a23.41,23.41,0,0,1-3.87-4.34l-.83.56ZM.69,728.85a32.62,32.62,0,0,0,1.7,5.81l.93-.38a31.1,31.1,0,0,1-1.65-5.62Zm-.41-12A40.33,40.33,0,0,0,0,721.6c0,.41,0,.83,0,1.25l1,0c0-.41,0-.82,0-1.22a40.75,40.75,0,0,1,.27-4.67l-1-.11Zm3.05-11.64a42.17,42.17,0,0,0-1.94,5.71l1,.25a41.48,41.48,0,0,1,1.89-5.57ZM9.73,695a34.73,34.73,0,0,0-3.63,4.84l.85.53a33.67,33.67,0,0,1,3.52-4.7L9.73,695Z"/><path class="cls-19" d="M608.42,629.25c-.93-.54-1.81-1-2.61-1.48l-.49.87c.8.45,1.67.94,2.6,1.48l.5-.87Z"/></g></g></svg>
