<?xml version="1.0" encoding="UTF-8"?>
<svg width="30px" height="30px" viewBox="0 0 30 30" version="1.1" xmlns="http://www.w3.org/2000/svg" xmlns:xlink="http://www.w3.org/1999/xlink">
    <!-- Generator: sketchtool 54.1 (76490) - https://sketchapp.com -->
    <title>83BA2343-491D-47CA-8EC4-43EE0AF19B22</title>
    <desc>Created with sketchtool.</desc>
    <g id="Page-1" stroke="none" stroke-width="1" fill="none" fill-rule="evenodd">
        <g id="11.profile" transform="translate(-98.000000, -438.000000)">
            <g id="Group-Copy" transform="translate(98.000000, 437.000000)">
                <g id="icon-role">
                    <g transform="translate(0.000000, 1.000000)">
                        <path d="M0.805992857,30 L0.736254762,30 C0.281921429,29.9677895 -0.0322452381,29.6166316 0.00227857143,29.2332632 C0.456611905,23.1315789 6.74339762,18.372 14.28685,18.372 C21.8303024,18.372 28.1163976,23.1315789 28.570731,29.2010526 C28.6059452,29.6166316 28.2565643,29.9362105 27.8374452,29.9677895 C27.3831119,30 27.033731,29.6804211 26.9992071,29.2970526 C26.5800881,23.9621053 20.9920643,19.8094737 14.28685,19.8094737 C7.54642143,19.8094737 1.95839762,23.9943158 1.57449286,29.3292632 C1.53927857,29.7126316 1.18989762,30 0.805992857,30" id="Fill-1" fill="#AA418C"></path>
                        <path d="M15.17,1.4 C11.4503976,1.4 8.4,4.44966218 8.4,8.17 C8.4,11.8896024 11.4503976,14.9392646 15.17,14.9392646 C18.8896024,14.9392646 21.94,11.8896024 21.94,8.17 C21.94,4.44966218 18.8896024,1.4 15.17,1.4 M15.1685,16.3377083 C10.6542917,16.3377083 7,12.6834167 7,8.16920833 C7,3.655 10.6542917,0 15.1685,0 C19.6827083,0 23.337,3.655 23.337,8.16920833 C23.337,12.6834167 19.6827083,16.3377083 15.1685,16.3377083" id="Fill-4" fill="#AA418C"></path>
                        <path d="M24,28 C21.2369071,28 19,25.7629547 19,22.9996912 C19,20.2364276 21.2369071,18 24,18 C26.7630929,18 29,20.2364276 29,22.9996912 C29,25.7629547 26.7630929,28 24,28" id="Fill-7" fill="#FFFFFF"></path>
                        <path d="M24.2496632,18.7325474 C21.7435579,18.7325474 19.7048211,20.7712842 19.7048211,23.2773895 C19.7048211,25.7834947 21.7435579,27.8222316 24.2496632,27.8222316 C26.7557684,27.8222316 28.7945053,25.7834947 28.7945053,23.2773895 C28.7945053,20.7712842 26.7557684,18.7325474 24.2496632,18.7325474 M24.2496632,28.9584421 C21.1170316,28.9584421 18.5679789,26.4100211 18.5679789,23.2773895 C18.5679789,20.1441263 21.1170316,17.5957053 24.2496632,17.5957053 C27.3822947,17.5957053 29.9313474,20.1441263 29.9313474,23.2773895 C29.9313474,26.4100211 27.3822947,28.9584421 24.2496632,28.9584421" id="Fill-9" fill="#AA418C"></path>
                        <path d="M23.901497,25.3333333 C23.7803218,25.3333333 23.6591466,25.2925028 23.5630999,25.2103183 L22.1637216,24.0147166 C21.9587847,23.8393547 21.944266,23.5415013 22.1313337,23.3488649 C22.317843,23.1562286 22.6350206,23.1426184 22.8410743,23.3185037 L23.8886536,24.2136346 L26.145193,22.1349419 C26.343429,21.9527749 26.6611649,21.9553922 26.8560504,22.1407 C27.0503775,22.3260078 27.0475855,22.6243847 26.8499079,22.8070752 L24.2538545,25.1982785 C24.1561325,25.2883151 24.0288148,25.3333333 23.901497,25.3333333" id="Fill-12" stroke="#AA418C" stroke-width="0.2" fill="#AA418C"></path>
                    </g>
                </g>
            </g>
        </g>
    </g>
</svg>